<?xml version="1.0" encoding="UTF-8" ?>
<!DOCTYPE svg PUBLIC "-//W3C//DTD SVG 1.1//EN" "http://www.w3.org/Graphics/SVG/1.1/DTD/svg11.dtd">
<svg width="185pt" height="326pt" viewBox="0 0 185 326" version="1.1" xmlns="http://www.w3.org/2000/svg">
<g id="#000000ff">
<path fill="#000000" opacity="1.00" d=" M 0.00 0.00 L 0.36 0.00 C 0.27 0.09 0.09 0.27 0.00 0.36 L 0.00 0.00 Z" />
<path fill="#000000" opacity="1.00" d=" M 87.36 14.60 C 95.85 13.14 104.71 13.08 113.07 15.31 C 125.71 16.77 138.91 21.76 146.62 32.41 C 152.59 38.83 155.75 47.22 158.00 55.54 C 158.77 62.78 160.23 70.00 160.14 77.30 C 164.64 78.22 168.68 81.30 170.10 85.77 C 173.71 93.32 172.50 102.73 167.13 109.12 C 165.75 110.28 164.30 112.35 162.25 111.66 C 160.14 111.22 158.11 110.49 156.04 109.89 C 154.20 113.14 152.11 116.24 150.23 119.47 C 147.77 123.80 143.44 126.52 140.13 130.12 C 134.49 136.77 125.70 139.13 117.74 141.74 C 115.22 147.43 115.97 153.97 116.68 159.99 C 119.17 166.99 122.33 173.80 124.11 181.06 C 125.53 187.72 127.58 194.25 128.66 200.99 C 129.70 205.38 130.39 209.98 129.34 214.44 C 128.52 217.72 130.48 220.76 130.82 223.96 C 133.02 233.04 132.63 242.52 131.34 251.71 C 130.64 256.58 132.94 261.43 132.24 266.19 C 128.27 268.66 123.24 268.11 118.80 269.15 C 118.67 277.21 122.26 284.55 123.34 292.40 C 128.18 294.78 132.61 299.24 132.41 305.01 C 133.61 310.11 128.12 313.20 123.85 313.84 C 117.12 314.47 110.33 313.90 103.60 314.59 C 97.21 316.28 90.54 315.98 84.00 316.42 C 77.66 316.24 71.35 315.25 65.00 315.57 C 60.14 313.10 53.55 311.04 52.08 305.12 C 45.43 307.47 38.02 307.91 31.27 305.75 C 28.36 304.04 26.50 300.51 26.64 297.14 C 28.75 289.38 35.25 282.75 43.35 281.58 C 44.31 279.14 45.59 276.85 46.89 274.58 C 51.81 274.28 56.75 274.89 61.37 276.65 C 62.75 277.76 63.78 279.22 64.98 280.52 C 66.61 276.37 67.21 271.94 67.66 267.54 C 64.77 267.49 61.80 268.07 58.99 267.21 C 53.30 265.29 47.23 266.90 41.48 265.38 C 41.26 261.74 41.21 258.09 41.69 254.47 C 42.31 250.08 41.54 245.67 41.77 241.26 C 39.43 240.67 36.84 239.78 35.93 237.28 C 33.82 232.10 36.72 226.85 38.24 221.94 C 40.06 215.47 41.40 208.85 43.62 202.49 C 45.31 198.71 47.62 195.26 49.76 191.74 C 53.80 183.75 60.32 177.37 64.68 169.56 C 66.13 166.84 65.94 163.42 68.08 161.05 C 70.05 158.64 71.50 155.85 73.60 153.55 C 76.36 152.13 79.43 151.41 82.48 150.98 C 83.26 148.46 83.82 145.88 84.15 143.27 C 73.05 140.58 61.63 137.51 52.25 130.71 C 44.82 124.75 38.70 117.16 34.46 108.62 C 30.95 105.11 24.93 103.47 23.89 97.93 C 22.45 90.24 28.28 84.10 32.07 78.12 C 35.10 68.76 35.99 58.59 41.11 49.98 C 47.07 40.63 53.33 30.82 63.19 25.14 C 70.23 19.67 78.87 16.94 87.36 14.60 M 96.44 17.54 C 90.02 18.45 83.30 18.40 77.36 21.32 C 72.57 22.73 68.28 25.28 64.58 28.61 C 56.00 34.02 50.70 42.85 45.10 51.01 C 37.37 65.02 33.85 81.53 35.83 97.45 C 35.97 100.05 38.00 101.96 38.59 104.38 C 38.98 112.43 45.83 117.73 50.23 123.80 C 59.51 132.48 72.24 135.97 84.37 138.51 C 91.88 139.45 99.49 138.83 107.02 139.50 C 111.27 140.08 115.14 138.02 119.18 137.17 C 125.86 136.02 132.82 133.69 137.48 128.50 C 139.91 125.91 142.75 123.74 145.14 121.11 C 147.67 118.73 148.54 115.25 150.41 112.41 C 151.88 110.23 152.46 107.63 153.60 105.29 C 156.64 104.45 159.25 106.57 162.02 107.40 C 165.10 105.81 167.18 102.68 168.44 99.53 C 169.54 94.13 167.78 88.47 165.27 83.70 C 163.92 80.90 160.75 80.29 158.01 79.76 C 156.40 82.23 155.80 86.04 152.49 86.74 C 153.17 83.25 155.30 80.32 156.43 77.01 C 156.51 73.87 155.87 70.77 155.61 67.66 C 154.60 53.01 147.85 38.89 137.15 28.85 C 131.76 24.58 125.32 22.08 118.94 19.70 C 111.28 20.67 104.11 16.20 96.44 17.54 M 28.18 98.65 C 29.23 100.24 31.07 101.07 32.55 102.20 C 32.54 98.30 30.94 94.53 31.46 90.61 C 31.79 88.55 31.30 86.51 30.89 84.51 C 27.41 88.11 25.60 94.07 28.18 98.65 M 100.69 146.63 C 96.60 148.04 92.27 147.36 88.21 146.23 C 87.17 149.24 86.01 152.21 84.66 155.10 C 86.60 156.64 88.43 158.32 90.20 160.06 C 91.39 158.45 92.52 156.78 93.60 155.09 C 95.91 154.48 98.84 155.68 100.62 153.68 C 102.01 152.63 103.19 151.05 104.99 150.74 C 107.44 151.22 109.37 152.92 111.50 154.10 C 112.18 150.97 112.83 147.84 113.44 144.70 C 109.29 146.24 104.80 145.05 100.69 146.63 M 100.91 157.00 C 99.08 158.71 95.72 156.90 94.31 159.24 C 91.66 162.06 90.38 166.40 86.48 167.81 C 85.78 165.42 85.68 162.81 84.52 160.59 C 83.18 158.96 81.72 157.40 80.06 156.11 C 75.19 156.08 72.17 160.11 70.42 164.16 C 71.93 164.57 73.42 165.04 74.97 165.30 C 77.89 164.50 80.39 162.66 83.24 161.66 C 81.57 163.53 79.69 165.24 77.54 166.54 C 74.81 168.40 70.95 167.01 68.40 169.26 C 68.44 170.79 68.80 172.29 68.86 173.83 C 67.58 178.07 64.31 181.29 62.05 185.01 C 61.16 186.51 59.99 188.10 60.57 189.95 C 61.61 195.41 61.41 201.04 62.64 206.47 C 64.79 208.25 66.36 204.94 67.50 203.51 C 70.62 199.55 72.44 194.03 77.00 191.54 C 79.76 192.86 81.59 195.48 82.51 198.34 C 84.35 203.54 87.46 208.12 90.33 212.78 C 92.87 210.65 94.59 207.85 95.80 204.80 C 97.04 201.63 100.30 200.38 103.21 199.20 C 103.85 196.58 104.55 193.97 105.48 191.43 C 106.17 192.55 107.21 193.65 106.98 195.09 C 106.82 201.32 104.40 207.11 102.96 213.08 C 110.70 212.67 118.73 211.37 126.27 213.74 C 126.51 208.56 125.45 203.45 124.46 198.40 C 122.82 193.12 122.48 187.54 120.98 182.22 C 119.63 178.86 118.60 175.37 116.93 172.15 C 115.88 169.96 116.37 166.84 113.96 165.53 C 111.36 166.61 109.55 170.57 106.33 169.08 C 103.78 166.28 101.55 163.17 98.61 160.72 C 99.38 160.12 100.19 159.57 101.04 159.08 C 104.09 160.04 105.73 162.99 107.98 165.02 C 110.79 163.11 113.93 161.06 114.12 157.30 C 110.59 157.11 107.84 155.06 105.22 152.93 C 103.79 154.29 102.42 155.72 100.91 157.00 M 59.32 182.30 C 56.30 186.39 53.97 190.92 51.35 195.26 C 48.94 198.72 46.77 202.50 46.10 206.72 C 46.72 207.84 47.86 208.52 48.79 209.35 C 53.70 201.15 55.23 191.46 60.28 183.35 C 63.10 179.71 65.97 175.95 67.11 171.40 C 63.78 174.47 62.00 178.72 59.32 182.30 M 56.08 199.71 C 57.01 201.04 58.16 202.21 59.25 203.41 C 59.35 200.24 59.11 197.05 58.17 194.01 C 57.35 195.84 56.23 197.65 56.08 199.71 M 74.17 199.05 C 75.88 200.51 77.25 203.08 79.85 202.84 C 79.65 200.14 78.42 197.64 76.81 195.52 C 74.37 194.56 74.64 197.58 74.17 199.05 M 52.29 208.23 C 49.44 219.80 46.20 231.42 46.27 243.42 L 45.48 243.18 C 45.30 243.54 44.95 244.28 44.77 244.64 C 44.98 245.12 45.39 246.06 45.60 246.53 C 52.31 247.88 59.22 246.89 66.01 247.34 C 71.05 247.81 76.16 246.83 81.12 248.12 C 91.21 249.14 101.35 247.76 111.47 248.19 C 111.08 247.54 110.31 246.22 109.92 245.57 C 106.14 247.11 99.54 247.19 98.90 241.93 C 98.03 232.90 102.83 224.46 103.22 215.48 C 97.96 216.40 97.75 222.35 94.54 225.56 C 92.52 227.73 92.11 230.73 91.25 233.44 C 90.02 233.56 88.79 233.68 87.56 233.80 C 87.18 232.38 86.86 230.94 86.38 229.56 C 84.71 227.60 82.03 226.48 81.19 223.85 C 79.56 219.74 77.41 215.88 75.55 211.87 C 72.89 215.26 71.32 219.31 68.85 222.82 C 66.99 225.56 65.46 228.52 64.33 231.64 C 62.56 230.97 59.52 231.70 59.04 229.34 C 57.70 224.37 55.81 219.40 51.89 215.87 C 52.62 212.40 52.70 208.14 56.48 206.51 C 55.97 205.14 55.45 203.78 54.91 202.42 C 53.85 204.27 52.86 206.17 52.29 208.23 M 38.81 231.02 C 38.11 234.29 40.32 238.07 44.01 237.48 C 43.69 235.05 42.65 232.85 41.05 231.01 C 41.24 230.53 41.63 229.57 41.83 229.09 C 42.72 229.29 43.60 229.51 44.49 229.74 C 45.93 223.42 48.00 217.25 48.60 210.74 C 47.72 210.71 45.96 210.64 45.08 210.60 C 41.70 216.85 39.63 223.96 38.81 231.02 M 54.06 213.77 C 54.92 215.31 56.85 215.76 58.27 216.63 C 57.33 214.39 56.15 212.28 54.78 210.29 C 54.46 211.43 54.22 212.59 54.06 213.77 M 61.54 213.25 C 61.09 214.58 63.00 216.74 64.36 215.91 C 64.95 214.50 62.88 212.60 61.54 213.25 M 93.05 214.46 C 91.93 214.86 91.14 216.55 91.96 217.55 C 93.45 218.17 94.81 214.65 93.05 214.46 M 83.70 214.63 C 83.62 217.63 85.02 220.41 87.42 222.18 C 87.06 219.31 85.68 216.70 83.70 214.63 M 107.35 215.90 C 104.71 222.42 103.57 229.41 102.33 236.30 C 101.79 238.49 102.27 240.71 103.12 242.75 C 104.17 242.80 105.22 242.86 106.28 242.93 C 106.81 239.75 107.36 236.28 109.86 233.98 C 110.28 236.08 110.43 238.23 110.87 240.33 C 112.10 243.41 115.72 245.81 118.93 243.98 C 121.90 241.73 121.80 237.60 122.52 234.30 C 124.18 236.09 125.75 238.10 128.34 238.46 C 128.70 236.02 129.07 233.59 129.45 231.15 C 127.95 230.45 126.46 229.75 124.96 229.05 C 126.69 225.03 126.10 220.73 125.33 216.57 C 119.31 216.55 113.34 216.35 107.35 215.90 M 61.05 224.32 C 61.41 225.86 62.10 227.28 62.74 228.72 C 64.57 226.17 68.05 223.34 66.52 219.85 C 64.73 221.37 62.83 222.78 61.05 224.32 M 92.01 220.94 C 91.49 222.55 92.05 223.10 93.68 222.59 C 94.18 220.96 93.62 220.41 92.01 220.94 M 125.71 241.65 C 123.49 242.76 122.90 245.38 121.80 247.39 C 124.12 247.13 126.44 246.77 128.77 246.52 C 129.31 244.85 129.82 243.17 130.34 241.50 C 128.81 241.39 127.13 240.76 125.71 241.65 M 70.43 268.66 C 73.19 271.52 75.85 274.52 79.01 276.95 C 81.31 278.81 84.44 278.36 87.19 278.36 C 87.79 279.47 88.39 280.58 89.03 281.67 C 91.40 277.82 91.22 273.27 91.25 268.93 C 84.36 269.14 76.77 264.41 70.43 268.66 M 92.75 268.66 C 96.27 272.28 93.55 277.05 93.37 281.34 C 97.96 281.77 102.49 280.85 107.05 280.60 C 110.51 280.29 113.07 283.04 115.83 284.65 C 115.66 279.23 115.20 273.82 114.23 268.49 C 107.11 269.33 99.87 269.87 92.75 268.66 M 68.38 281.03 C 70.15 284.49 73.91 286.27 77.18 288.04 C 80.79 288.30 84.47 287.30 88.13 287.42 C 88.48 285.92 88.84 284.43 89.21 282.95 C 87.78 282.17 86.37 281.35 84.89 280.66 C 82.36 280.42 79.48 281.36 77.27 279.70 C 74.78 277.92 72.98 275.38 70.90 273.18 C 69.97 275.76 68.89 278.32 68.38 281.03 M 49.53 278.24 C 48.55 280.45 54.20 280.24 53.43 278.15 C 52.31 277.38 50.62 277.46 49.53 278.24 M 59.23 278.97 C 59.32 282.35 62.13 277.44 59.23 278.97 M 92.41 284.16 C 91.53 286.84 91.04 289.63 91.18 292.47 C 94.52 293.21 98.15 293.93 101.42 292.48 C 103.05 292.02 104.67 290.82 106.42 291.44 C 109.91 292.50 113.48 293.25 117.12 293.61 C 114.07 289.87 111.94 284.44 106.92 282.99 C 102.07 282.92 97.27 284.03 92.41 284.16 M 52.73 284.76 C 53.84 287.04 54.96 289.33 56.09 291.61 C 57.18 290.77 58.26 289.92 59.34 289.07 C 58.46 287.19 57.58 285.31 56.69 283.43 C 55.37 283.85 54.05 284.30 52.73 284.76 M 61.64 284.25 C 61.86 286.00 62.02 287.78 62.59 289.46 C 64.14 290.12 65.87 290.01 67.52 290.20 C 66.34 287.55 64.42 285.27 61.64 284.25 M 37.62 289.58 C 35.76 291.46 33.88 293.39 32.52 295.67 C 30.97 298.24 33.13 301.89 36.04 302.12 C 42.51 302.53 49.22 302.51 55.44 300.52 C 58.14 297.64 60.69 294.56 64.47 293.02 C 63.32 292.69 62.16 292.41 60.98 292.18 C 58.84 292.51 56.83 294.49 54.62 293.59 C 52.53 291.33 51.42 288.39 49.91 285.76 C 45.74 286.61 40.88 286.44 37.62 289.58 M 66.72 293.07 C 68.59 292.34 70.45 291.60 72.32 290.86 C 71.53 289.63 70.74 288.40 69.95 287.19 C 68.93 289.18 67.84 291.13 66.72 293.07 M 118.43 292.86 C 118.80 294.15 119.19 295.44 119.59 296.73 C 116.49 296.45 113.40 296.96 110.30 296.81 C 108.20 296.33 106.63 294.66 104.85 293.54 C 99.83 295.34 94.44 295.66 89.44 297.51 C 87.15 298.61 85.08 296.71 83.09 295.83 C 82.94 298.43 82.74 301.03 82.22 303.59 C 81.05 301.46 80.45 298.98 78.91 297.08 C 76.78 295.98 74.37 294.06 71.85 295.02 C 68.73 296.07 65.65 297.26 62.67 298.67 C 59.88 299.97 58.29 302.73 56.55 305.12 C 60.26 309.72 66.10 311.38 71.82 311.25 C 82.62 312.94 93.58 312.21 104.35 310.63 C 111.14 309.69 118.02 310.36 124.82 309.76 C 130.68 309.23 130.88 300.09 126.25 297.71 C 123.52 296.29 120.93 294.65 118.43 292.86 Z" />
<path fill="#000000" opacity="1.00" d=" M 83.19 31.36 C 88.12 30.73 91.62 24.97 96.84 27.04 C 100.91 28.14 103.64 31.70 107.14 33.86 C 108.54 32.26 110.11 30.88 112.36 30.87 C 111.71 33.13 110.89 36.26 107.90 35.93 C 102.89 35.80 100.49 29.93 95.95 28.44 C 92.97 28.51 90.65 30.76 88.24 32.26 C 84.44 34.32 84.15 40.14 86.98 43.07 C 90.84 45.19 95.08 46.58 99.07 48.45 C 101.45 45.98 102.03 42.55 103.69 39.67 C 104.97 41.26 105.76 43.32 107.41 44.58 C 111.55 46.20 116.18 45.66 120.47 44.94 C 120.48 46.95 120.53 48.95 120.47 50.96 C 114.66 49.78 108.85 48.72 103.09 47.22 C 101.83 48.49 101.17 51.20 98.95 50.81 C 95.90 50.57 93.72 48.05 90.85 47.27 C 87.77 46.35 84.00 45.57 82.59 42.28 C 81.58 38.70 82.68 34.95 83.19 31.36 Z" />
<path fill="#000000" opacity="1.00" d=" M 76.10 49.56 C 78.54 47.08 82.33 48.32 85.39 48.48 C 85.43 49.11 85.52 50.37 85.57 51.00 C 82.42 50.50 79.25 50.07 76.10 49.56 Z" />
<path fill="#000000" opacity="1.00" d=" M 91.47 61.28 C 93.78 60.64 96.10 60.03 98.40 59.34 C 100.79 58.62 102.97 60.22 105.04 61.15 C 101.39 64.10 96.06 62.58 92.32 65.35 C 88.83 67.73 87.60 72.11 86.71 76.02 C 86.30 77.68 87.69 79.16 88.95 80.04 C 93.34 83.49 99.10 80.56 104.12 81.60 C 103.52 83.12 102.60 84.90 100.66 84.61 C 96.19 84.45 90.93 86.14 87.20 82.83 C 83.66 80.38 83.64 75.42 84.47 71.63 C 85.89 67.73 87.18 62.92 91.47 61.28 Z" />
<path fill="#000000" opacity="1.00" d=" M 76.46 71.46 C 75.03 68.58 78.41 67.05 80.06 65.37 C 81.23 66.24 82.45 67.05 83.46 68.12 C 83.33 70.00 83.03 72.63 80.79 73.06 C 79.14 73.79 77.59 72.51 76.46 71.46 Z" />
<path fill="#000000" opacity="1.00" d=" M 109.83 65.60 C 112.09 65.69 115.90 65.81 115.52 69.06 C 115.73 72.22 112.58 73.88 109.79 73.43 C 109.39 70.83 109.53 68.21 109.83 65.60 Z" />
<path fill="#000000" opacity="1.00" d=" M 57.04 104.63 C 55.44 101.70 57.18 98.51 59.08 96.23 C 59.92 99.95 58.46 104.50 61.49 107.49 C 66.66 111.67 72.34 115.50 78.83 117.24 C 82.76 118.60 86.72 120.12 90.93 120.20 C 99.96 120.45 109.05 119.11 117.65 116.35 C 125.44 114.06 131.48 107.38 133.86 99.74 C 134.70 100.47 135.54 101.21 136.37 101.95 C 133.67 106.02 131.21 110.30 127.98 113.99 C 118.00 122.23 104.29 122.36 92.00 123.26 C 85.80 124.13 80.18 121.03 74.28 119.80 C 72.36 119.15 70.13 118.91 68.62 117.43 C 64.55 113.37 58.41 110.76 57.04 104.63 Z" />
</g>
<g id="#feddb4ff">
<path fill="#feddb4" opacity="1.00" d=" M 96.44 17.54 C 104.11 16.20 111.28 20.67 118.94 19.70 C 125.32 22.08 131.76 24.58 137.15 28.85 C 147.85 38.89 154.60 53.01 155.61 67.66 C 155.87 70.77 156.51 73.87 156.43 77.01 C 155.30 80.32 153.17 83.25 152.49 86.74 C 155.80 86.04 156.40 82.23 158.01 79.76 C 160.75 80.29 163.92 80.90 165.27 83.70 C 167.78 88.47 169.54 94.13 168.44 99.53 C 167.18 102.68 165.10 105.81 162.02 107.40 C 159.25 106.57 156.64 104.45 153.60 105.29 C 152.46 107.63 151.88 110.23 150.41 112.41 C 148.54 115.25 147.67 118.73 145.14 121.11 C 142.75 123.74 139.91 125.91 137.48 128.50 C 132.82 133.69 125.86 136.02 119.18 137.17 C 115.14 138.02 111.27 140.08 107.02 139.50 C 99.49 138.83 91.88 139.45 84.37 138.51 C 72.24 135.97 59.51 132.48 50.23 123.80 C 45.83 117.73 38.98 112.43 38.59 104.38 C 38.00 101.96 35.97 100.05 35.83 97.45 C 33.85 81.53 37.37 65.02 45.10 51.01 C 50.70 42.85 56.00 34.02 64.58 28.61 C 68.28 25.28 72.57 22.73 77.36 21.32 C 83.30 18.40 90.02 18.45 96.44 17.54 M 83.19 31.36 C 82.68 34.95 81.58 38.70 82.59 42.28 C 84.00 45.57 87.77 46.35 90.85 47.27 C 93.72 48.05 95.90 50.57 98.95 50.81 C 101.17 51.20 101.83 48.49 103.09 47.22 C 108.85 48.72 114.66 49.78 120.47 50.96 C 120.53 48.95 120.48 46.95 120.47 44.94 C 116.18 45.66 111.55 46.20 107.41 44.58 C 105.76 43.32 104.97 41.26 103.69 39.67 C 102.03 42.55 101.45 45.98 99.07 48.45 C 95.08 46.58 90.84 45.19 86.98 43.07 C 84.15 40.14 84.44 34.32 88.24 32.26 C 90.65 30.76 92.97 28.51 95.95 28.44 C 100.49 29.93 102.89 35.80 107.90 35.93 C 110.89 36.26 111.71 33.13 112.36 30.87 C 110.11 30.88 108.54 32.26 107.14 33.86 C 103.64 31.70 100.91 28.14 96.84 27.04 C 91.62 24.97 88.12 30.73 83.19 31.36 M 76.10 49.56 C 79.25 50.07 82.42 50.50 85.57 51.00 C 85.52 50.37 85.43 49.11 85.39 48.48 C 82.33 48.32 78.54 47.08 76.10 49.56 M 91.47 61.28 C 87.18 62.92 85.89 67.73 84.47 71.63 C 83.64 75.42 83.66 80.38 87.20 82.83 C 90.93 86.14 96.19 84.45 100.66 84.61 C 102.60 84.90 103.52 83.12 104.12 81.60 C 99.10 80.56 93.34 83.49 88.95 80.04 C 87.69 79.16 86.30 77.68 86.71 76.02 C 87.60 72.11 88.83 67.73 92.32 65.35 C 96.06 62.58 101.39 64.10 105.04 61.15 C 102.97 60.22 100.79 58.62 98.40 59.34 C 96.10 60.03 93.78 60.64 91.47 61.28 M 76.46 71.46 C 77.59 72.51 79.14 73.79 80.79 73.06 C 83.03 72.63 83.33 70.00 83.46 68.12 C 82.45 67.05 81.23 66.24 80.06 65.37 C 78.41 67.05 75.03 68.58 76.46 71.46 M 109.83 65.60 C 109.53 68.21 109.39 70.83 109.79 73.43 C 112.58 73.88 115.73 72.22 115.52 69.06 C 115.90 65.81 112.09 65.69 109.83 65.60 M 57.04 104.63 C 58.41 110.76 64.55 113.37 68.62 117.43 C 70.13 118.91 72.36 119.15 74.28 119.80 C 80.18 121.03 85.80 124.13 92.00 123.26 C 104.29 122.36 118.00 122.23 127.98 113.99 C 131.21 110.30 133.67 106.02 136.37 101.95 C 135.54 101.21 134.70 100.47 133.86 99.74 C 131.48 107.38 125.44 114.06 117.65 116.35 C 109.05 119.11 99.96 120.45 90.93 120.20 C 86.72 120.12 82.76 118.60 78.83 117.24 C 72.34 115.50 66.66 111.67 61.49 107.49 C 58.46 104.50 59.92 99.95 59.08 96.23 C 57.18 98.51 55.44 101.70 57.04 104.63 Z" />
<path fill="#feddb4" opacity="1.00" d=" M 28.18 98.65 C 25.60 94.07 27.41 88.11 30.89 84.51 C 31.30 86.51 31.79 88.55 31.46 90.61 C 30.94 94.53 32.54 98.30 32.55 102.20 C 31.07 101.07 29.23 100.24 28.18 98.65 Z" />
<path fill="#feddb4" opacity="1.00" d=" M 100.69 146.63 C 104.80 145.05 109.29 146.24 113.44 144.70 C 112.83 147.84 112.18 150.97 111.50 154.10 C 109.37 152.92 107.44 151.22 104.99 150.74 C 103.19 151.05 102.01 152.63 100.62 153.68 C 98.84 155.68 95.91 154.48 93.60 155.09 C 92.52 156.78 91.39 158.45 90.20 160.06 C 88.43 158.32 86.60 156.64 84.66 155.10 C 86.01 152.21 87.17 149.24 88.21 146.23 C 92.27 147.36 96.60 148.04 100.69 146.63 Z" />
<path fill="#feddb4" opacity="1.00" d=" M 38.81 231.02 C 39.63 223.96 41.70 216.85 45.08 210.60 C 45.96 210.64 47.72 210.71 48.60 210.74 C 48.00 217.25 45.93 223.42 44.49 229.74 C 43.60 229.51 42.72 229.29 41.83 229.09 C 41.63 229.57 41.24 230.53 41.05 231.01 C 42.65 232.85 43.69 235.05 44.01 237.48 C 40.32 238.07 38.11 234.29 38.81 231.02 Z" />
<path fill="#feddb4" opacity="1.00" d=" M 107.35 215.90 C 113.34 216.35 119.31 216.55 125.33 216.57 C 126.10 220.73 126.69 225.03 124.96 229.05 C 126.46 229.75 127.95 230.45 129.45 231.15 C 129.07 233.59 128.70 236.02 128.34 238.46 C 125.75 238.10 124.18 236.09 122.52 234.30 C 121.80 237.60 121.90 241.73 118.93 243.98 C 115.72 245.81 112.10 243.41 110.87 240.33 C 110.43 238.23 110.28 236.08 109.86 233.98 C 107.36 236.28 106.81 239.75 106.28 242.93 C 105.22 242.86 104.17 242.80 103.12 242.75 C 102.27 240.71 101.79 238.49 102.33 236.30 C 103.57 229.41 104.71 222.42 107.35 215.90 Z" />
<path fill="#feddb4" opacity="1.00" d=" M 70.43 268.66 C 76.77 264.41 84.36 269.14 91.25 268.93 C 91.22 273.27 91.40 277.82 89.03 281.67 C 88.39 280.58 87.79 279.47 87.19 278.36 C 84.44 278.36 81.31 278.81 79.01 276.95 C 75.85 274.52 73.19 271.52 70.43 268.66 Z" />
<path fill="#feddb4" opacity="1.00" d=" M 92.75 268.66 C 99.87 269.87 107.11 269.33 114.23 268.49 C 115.20 273.82 115.66 279.23 115.83 284.65 C 113.07 283.04 110.51 280.29 107.05 280.60 C 102.49 280.85 97.96 281.77 93.37 281.34 C 93.55 277.05 96.27 272.28 92.75 268.66 Z" />
</g>
<g id="#fecc32ff">
<path fill="#fecc32" opacity="1.00" d=" M 100.91 157.00 C 102.42 155.72 103.79 154.29 105.22 152.93 C 107.84 155.06 110.59 157.11 114.12 157.30 C 113.93 161.06 110.79 163.11 107.98 165.02 C 105.73 162.99 104.09 160.04 101.04 159.08 C 100.19 159.57 99.38 160.12 98.61 160.72 C 101.55 163.17 103.78 166.28 106.33 169.08 C 109.55 170.57 111.36 166.61 113.96 165.53 C 116.37 166.84 115.88 169.96 116.93 172.15 C 118.60 175.37 119.63 178.86 120.98 182.22 C 122.48 187.54 122.82 193.12 124.46 198.40 C 125.45 203.45 126.51 208.56 126.27 213.74 C 118.73 211.37 110.70 212.67 102.96 213.08 C 104.40 207.11 106.82 201.32 106.98 195.09 C 107.21 193.65 106.17 192.55 105.48 191.43 C 104.55 193.97 103.85 196.58 103.21 199.20 C 100.30 200.38 97.04 201.63 95.80 204.80 C 94.59 207.85 92.87 210.65 90.33 212.78 C 87.46 208.12 84.35 203.54 82.51 198.34 C 81.59 195.48 79.76 192.86 77.00 191.54 C 72.44 194.03 70.62 199.55 67.50 203.51 C 66.36 204.94 64.79 208.25 62.64 206.47 C 61.41 201.04 61.61 195.41 60.57 189.95 C 59.99 188.10 61.16 186.51 62.05 185.01 C 64.31 181.29 67.58 178.07 68.86 173.83 C 68.80 172.29 68.44 170.79 68.40 169.26 C 70.95 167.01 74.81 168.40 77.54 166.54 C 79.69 165.24 81.57 163.53 83.24 161.66 C 80.39 162.66 77.89 164.50 74.97 165.30 C 73.42 165.04 71.93 164.57 70.42 164.16 C 72.17 160.11 75.19 156.08 80.06 156.11 C 81.72 157.40 83.18 158.96 84.52 160.59 C 85.68 162.81 85.78 165.42 86.48 167.81 C 90.38 166.40 91.66 162.06 94.31 159.24 C 95.72 156.90 99.08 158.71 100.91 157.00 Z" />
<path fill="#fecc32" opacity="1.00" d=" M 59.32 182.30 C 62.00 178.72 63.78 174.47 67.11 171.40 C 65.97 175.95 63.10 179.71 60.28 183.35 C 55.23 191.46 53.70 201.15 48.79 209.35 C 47.86 208.52 46.72 207.84 46.10 206.72 C 46.77 202.50 48.94 198.72 51.35 195.26 C 53.97 190.92 56.30 186.39 59.32 182.30 Z" />
<path fill="#fecc32" opacity="1.00" d=" M 56.08 199.71 C 56.23 197.65 57.35 195.84 58.17 194.01 C 59.11 197.05 59.35 200.24 59.25 203.41 C 58.16 202.21 57.01 201.04 56.08 199.71 Z" />
<path fill="#fecc32" opacity="1.00" d=" M 74.17 199.05 C 74.64 197.58 74.37 194.56 76.81 195.52 C 78.42 197.64 79.65 200.14 79.85 202.84 C 77.25 203.08 75.88 200.51 74.17 199.05 Z" />
<path fill="#fecc32" opacity="1.00" d=" M 52.29 208.23 C 52.86 206.17 53.85 204.27 54.91 202.42 C 55.45 203.78 55.97 205.14 56.48 206.51 C 52.70 208.14 52.62 212.40 51.89 215.87 C 55.81 219.40 57.70 224.37 59.04 229.34 C 59.52 231.70 62.56 230.97 64.33 231.64 C 65.46 228.52 66.99 225.56 68.85 222.82 C 71.32 219.31 72.89 215.26 75.55 211.87 C 77.41 215.88 79.56 219.74 81.19 223.85 C 82.03 226.48 84.71 227.60 86.38 229.56 C 86.86 230.94 87.18 232.38 87.56 233.80 C 88.79 233.68 90.02 233.56 91.25 233.44 C 92.11 230.73 92.52 227.73 94.54 225.56 C 97.75 222.35 97.96 216.40 103.22 215.48 C 102.83 224.46 98.03 232.90 98.90 241.93 C 99.54 247.19 106.14 247.11 109.92 245.57 C 110.31 246.22 111.08 247.54 111.47 248.19 C 101.35 247.76 91.21 249.14 81.12 248.12 C 76.16 246.83 71.05 247.81 66.01 247.34 C 59.22 246.89 52.31 247.88 45.60 246.53 C 45.39 246.06 44.98 245.12 44.77 244.64 L 45.54 244.73 C 45.72 244.40 46.09 243.75 46.27 243.42 C 46.20 231.42 49.44 219.80 52.29 208.23 Z" />
<path fill="#fecc32" opacity="1.00" d=" M 54.06 213.77 C 54.22 212.59 54.46 211.43 54.78 210.29 C 56.15 212.28 57.33 214.39 58.27 216.63 C 56.85 215.76 54.92 215.31 54.06 213.77 Z" />
<path fill="#fecc32" opacity="1.00" d=" M 61.54 213.25 C 62.88 212.60 64.95 214.50 64.36 215.91 C 63.00 216.74 61.09 214.58 61.54 213.25 Z" />
<path fill="#fecc32" opacity="1.00" d=" M 93.05 214.46 C 94.81 214.65 93.45 218.17 91.96 217.55 C 91.14 216.55 91.93 214.86 93.05 214.46 Z" />
<path fill="#fecc32" opacity="1.00" d=" M 83.70 214.63 C 85.68 216.70 87.06 219.31 87.42 222.18 C 85.02 220.41 83.62 217.63 83.70 214.63 Z" />
<path fill="#fecc32" opacity="1.00" d=" M 61.05 224.32 C 62.83 222.78 64.73 221.37 66.52 219.85 C 68.05 223.34 64.57 226.17 62.74 228.72 C 62.10 227.28 61.41 225.86 61.05 224.32 Z" />
<path fill="#fecc32" opacity="1.00" d=" M 92.01 220.94 C 93.62 220.41 94.18 220.96 93.68 222.59 C 92.05 223.10 91.49 222.55 92.01 220.94 Z" />
<path fill="#fecc32" opacity="1.00" d=" M 125.71 241.65 C 127.13 240.76 128.81 241.39 130.34 241.50 C 129.82 243.17 129.31 244.85 128.77 246.52 C 126.44 246.77 124.12 247.13 121.80 247.39 C 122.90 245.38 123.49 242.76 125.71 241.65 Z" />
<path fill="#fecc32" opacity="1.00" d=" M 68.38 281.03 C 68.89 278.32 69.97 275.76 70.90 273.18 C 72.98 275.38 74.78 277.92 77.27 279.70 C 79.48 281.36 82.36 280.42 84.89 280.66 C 86.37 281.35 87.78 282.17 89.21 282.95 C 88.84 284.43 88.48 285.92 88.13 287.42 C 84.47 287.30 80.79 288.30 77.18 288.04 C 73.91 286.27 70.15 284.49 68.38 281.03 Z" />
<path fill="#fecc32" opacity="1.00" d=" M 92.41 284.16 C 97.27 284.03 102.07 282.92 106.92 282.99 C 111.94 284.44 114.07 289.87 117.12 293.61 C 113.48 293.25 109.91 292.50 106.42 291.44 C 104.67 290.82 103.05 292.02 101.42 292.48 C 98.15 293.93 94.52 293.21 91.18 292.47 C 91.04 289.63 91.53 286.84 92.41 284.16 Z" />
</g>
<g id="#9b7a59ff">
<path fill="#9b7a59" opacity="1.00" d=" M 45.48 243.18 L 46.27 243.42 C 46.09 243.75 45.72 244.40 45.54 244.73 L 44.77 244.64 C 44.95 244.28 45.30 243.54 45.48 243.18 Z" />
<path fill="#9b7a59" opacity="1.00" d=" M 52.73 284.76 C 54.05 284.30 55.37 283.85 56.69 283.43 C 57.58 285.31 58.46 287.19 59.34 289.07 C 58.26 289.92 57.18 290.77 56.09 291.61 C 54.96 289.33 53.84 287.04 52.73 284.76 Z" />
<path fill="#9b7a59" opacity="1.00" d=" M 61.64 284.25 C 64.42 285.27 66.34 287.55 67.52 290.20 C 65.87 290.01 64.14 290.12 62.59 289.46 C 62.02 287.78 61.86 286.00 61.64 284.25 Z" />
<path fill="#9b7a59" opacity="1.00" d=" M 37.62 289.58 C 40.88 286.44 45.74 286.61 49.91 285.76 C 51.42 288.39 52.53 291.33 54.62 293.59 C 56.83 294.49 58.84 292.51 60.98 292.18 C 62.16 292.41 63.32 292.69 64.47 293.02 C 60.69 294.56 58.14 297.64 55.44 300.52 C 49.22 302.51 42.51 302.53 36.04 302.12 C 33.13 301.89 30.97 298.24 32.52 295.67 C 33.88 293.39 35.76 291.46 37.62 289.58 Z" />
<path fill="#9b7a59" opacity="1.00" d=" M 66.72 293.07 C 67.84 291.13 68.93 289.18 69.95 287.19 C 70.74 288.40 71.53 289.63 72.32 290.86 C 70.45 291.60 68.59 292.34 66.72 293.07 Z" />
<path fill="#9b7a59" opacity="1.00" d=" M 118.43 292.86 C 120.93 294.65 123.52 296.29 126.25 297.71 C 130.88 300.09 130.68 309.23 124.82 309.76 C 118.02 310.36 111.14 309.69 104.35 310.63 C 93.58 312.21 82.62 312.94 71.82 311.25 C 66.10 311.38 60.26 309.72 56.55 305.12 C 58.29 302.73 59.88 299.97 62.67 298.67 C 65.65 297.26 68.73 296.07 71.85 295.02 C 74.37 294.06 76.78 295.98 78.91 297.08 C 80.45 298.98 81.05 301.46 82.22 303.59 C 82.74 301.03 82.94 298.43 83.09 295.83 C 85.08 296.71 87.15 298.61 89.44 297.51 C 94.44 295.66 99.83 295.34 104.85 293.54 C 106.63 294.66 108.20 296.33 110.30 296.81 C 113.40 296.96 116.49 296.45 119.59 296.73 C 119.19 295.44 118.80 294.15 118.43 292.86 Z" />
</g>
</svg>
